<svg xmlns="http://www.w3.org/2000/svg" viewBox="0 0 32 32" fill="none">
  <!-- Brain/AI themed favicon -->
  <circle cx="16" cy="16" r="14" fill="#0A1628"/>
  <!-- Brain left hemisphere -->
  <path d="M8 14c0-4 2-6 5-6 2 0 3 1 4 2" stroke="#3B82F6" stroke-width="2" stroke-linecap="round" fill="none"/>
  <path d="M9 16c-1-2 0-4 2-4" stroke="#60A5FA" stroke-width="1.5" stroke-linecap="round" fill="none"/>
  <path d="M10 20c-2-1-2-4 0-5" stroke="#3B82F6" stroke-width="1.5" stroke-linecap="round" fill="none"/>
  <!-- Brain right hemisphere -->
  <path d="M24 14c0-4-2-6-5-6-2 0-3 1-4 2" stroke="#3B82F6" stroke-width="2" stroke-linecap="round" fill="none"/>
  <path d="M23 16c1-2 0-4-2-4" stroke="#60A5FA" stroke-width="1.5" stroke-linecap="round" fill="none"/>
  <path d="M22 20c2-1 2-4 0-5" stroke="#3B82F6" stroke-width="1.5" stroke-linecap="round" fill="none"/>
  <!-- Center connection (AI spark) -->
  <circle cx="16" cy="16" r="2" fill="#60A5FA"/>
  <circle cx="16" cy="16" r="1" fill="#0A1628"/>
</svg>
